inDegrees=no
num_controls=7
num_derivatives=13
num_iterations=205
num_multipliers=7
num_parameters=0
num_slacks=7
num_states=26
objective=5.520260
objective_accelerations=0.598815
objective_balance=0.086289
objective_effort=0.484355
objective_height=4.309677
objective_ligament=0.041123
solver_duration=2416.762478
status=Solve_Succeeded
success=true
DataType=double
version=3
OpenSimVersion=4.4-2022-07-23-0e9fedc
endheader
time	/jointset/ground_pelvis/pelvis_tilt/value	/jointset/ground_pelvis/pelvis_tx/value	/jointset/ground_pelvis/pelvis_ty/value	/jointset/hip_l/hip_flexion_l/value	/jointset/hip_l/hip_adduction_l/value	/jointset/hip_l/hip_rotation_l/value	/jointset/back/lumbar_extension/value	/jointset/patellofemoral_l/patellar_flexion_l/value	/jointset/knee_l/knee_flexion_l/value	/jointset/knee_l/knee_adduction_l/value	/jointset/knee_l/knee_rotation_l/value	/jointset/ankle_l/ankle_angle_l/value	/jointset/subtalar_l/subtalar_angle_l/value	/jointset/ground_pelvis/pelvis_tilt/speed	/jointset/ground_pelvis/pelvis_tx/speed	/jointset/ground_pelvis/pelvis_ty/speed	/jointset/hip_l/hip_flexion_l/speed	/jointset/hip_l/hip_adduction_l/speed	/jointset/hip_l/hip_rotation_l/speed	/jointset/back/lumbar_extension/speed	/jointset/patellofemoral_l/patellar_flexion_l/speed	/jointset/knee_l/knee_flexion_l/speed	/jointset/knee_l/knee_adduction_l/speed	/jointset/knee_l/knee_rotation_l/speed	/jointset/ankle_l/ankle_angle_l/speed	/jointset/subtalar_l/subtalar_angle_l/speed	/forceset/tau_hip_flexion_l	/forceset/tau_hip_adduction_l	/forceset/tau_hip_rotation_l	/forceset/tau_knee_flexion_l	/forceset/tau_ankle_angle_l	/forceset/tau_subtalar_angle_l	/forceset/tau_lumbar_extension	lambda_cid13_p0	lambda_cid13_p1	lambda_cid13_p2	lambda_cid13_p3	lambda_cid13_p4	lambda_cid13_p5	lambda_cid14_p0	/jointset/ground_pelvis/pelvis_tilt/accel	/jointset/ground_pelvis/pelvis_tx/accel	/jointset/ground_pelvis/pelvis_ty/accel	/jointset/hip_l/hip_flexion_l/accel	/jointset/hip_l/hip_adduction_l/accel	/jointset/hip_l/hip_rotation_l/accel	/jointset/back/lumbar_extension/accel	/jointset/patellofemoral_l/patellar_flexion_l/accel	/jointset/knee_l/knee_flexion_l/accel	/jointset/knee_l/knee_adduction_l/accel	/jointset/knee_l/knee_rotation_l/accel	/jointset/ankle_l/ankle_angle_l/accel	/jointset/subtalar_l/subtalar_angle_l/accel	gamma_cid13_p0	gamma_cid13_p1	gamma_cid13_p2	gamma_cid13_p3	gamma_cid13_p4	gamma_cid13_p5	gamma_cid14_p0
0.5	-0.497369225606854	-0.09761231958750818	0.761388200214385	1.301438118884317	-0.3106166396593802	-0.07658944663257365	-0.3334332403030876	0.6135504704938027	0.6135504704938012	-0.1745056733848402	0.1745328433855394	-0.03292339741074155	-0.06297449736625614	-0.891122645680992	-0.326228551586374	-0.4925245181686876	2.469034162511622	-0.05754293775636712	0.5381273930085092	-0.6179504526564299	1.579084716548225	1.579084716548232	-0.0005938623897837936	7.506380892658077e-06	0.07159130806890605	-0.05930077166805089	-0.2698972573440133	0.01171070283478718	-0.01820724840305796	-0.178223336295027	0.1696219395422217	0.04713907855791629	0.2345934461740805	15.39871675757625	-25.59501424193758	6.44955444886815	-7.422485887742464	-608.9011508836661	-62.99239623554796	-32.43765735226257	0.6434963988149314	0.7741946650003093	-0.2521635674626123	-1.633839227709676	0.4959610659347123	-0.2265801119851326	1.842554834093195	-0.9588903945769638	-0.9588903945769627	0.03158074470044709	-0.03376158699837171	0.1230844184163877	0.5060749121923885	8.366463843878478e-09	-9.239131360709702e-07	1.326286629555641e-07	-1.607063075547553e-07	-1.829841363570909e-07	1.028481836387662e-07	-1.440509630421029e-07
0.51	-0.506246382897904	-0.1008355350361882	0.7564513797508524	1.326042548196593	-0.311168273866018	-0.07122132064416506	-0.3395207675339511	0.6292912774619984	0.6292912774620024	-0.1745112991421954	0.174532874061037	-0.03220184213281028	-0.06354323704874311	-0.8841928674162365	-0.3183875866852792	-0.4947396524080064	2.451531609872389	-0.05279223593829661	0.5354275463875074	-0.599493128051525	1.568862728012153	1.568862728012163	-0.0005313308772791416	7.475810167562268e-07	0.07269034222517269	-0.05445721300245252	-0.2789599240821337	0.01245218154266346	-0.01824539717054582	-0.1788678829959653	0.1703974371251736	0.04797143666705345	0.2414078082150486	15.39014722250977	-25.83469268233726	6.350338022332725	-7.511255166567492	-613.5959653030599	-62.65881175569599	-31.61709773764241	0.7350996350603747	0.7930587110053914	-0.1912355376800162	-1.856490202635517	0.463491220911187	-0.3023760312139074	1.856601093401951	-1.085916904569397	-1.08591690456885	-0.006580538154501278	0.01609629928923399	0.09889761367904031	0.4721139141032397	2.439854386577072e-09	-8.700248771591555e-07	1.387789658744138e-07	-1.528654419489918e-07	-1.71941578091732e-07	1.136641262138739e-07	-1.407095714154787e-07
0.52	-0.5150507661873558	-0.1039795385741889	0.751495398507824	1.350462346598355	-0.3116726277582414	-0.06588233094077774	-0.3454218655548231	0.6449234517805439	0.644923451780554	-0.1745163335629611	0.1745328830136918	-0.03147017957342694	-0.06406381763050219	-0.8765678453613002	-0.3103861694505304	-0.4963566740678651	2.432107980408942	-0.04808687487350728	0.5323001360042572	-0.5806646106581076	1.557358186618198	1.557358186618212	-0.0004755950719735451	3.161811998130973e-06	0.07361276435932883	-0.04966895152246698	-0.2880225908202555	0.01319366025053947	-0.01828354593803178	-0.179512429696904	0.1711729347081256	0.04880379477619035	0.2482221702560152	15.37330233290938	-26.07499868239485	6.25359341657068	-7.578149186455936	-618.4157081418091	-62.37304274783466	-30.7780267140758	0.7825451568510834	0.8062851317311447	-0.1325410515705657	-2.018054592552319	0.4868929152784822	-0.312092864434835	1.916793391795691	-1.215400966153573	-1.215400966153562	0.03022160326063597	-0.03192698082691853	0.08776201399428819	0.4950154750698234	-2.972798552069193e-09	-8.139579357438688e-07	1.4484693589248e-07	-1.443976748991046e-07	-1.606609240420395e-07	1.229953042741975e-07	-1.366843737043445e-07
0.53	-0.5237755658200894	-0.1070428109250864	0.7465262407990439	1.374678582263855	-0.3121301399644376	-0.06057661723878686	-0.3511329096946305	0.6604342824863658	0.6604342824863737	-0.1745207412171445	0.1745328402943659	-0.03073015129717415	-0.06453677408928156	-0.8682827992485459	-0.3022487837468678	-0.497373634796369	2.410833210170656	-0.04342737018402879	0.528768168883335	-0.5614980798171406	1.544603187154158	1.544603187154184	-0.0004017297925195915	-5.260305574271972e-06	0.07436458198441084	-0.04493551133314112	-0.2968749592482289	0.01376930598997684	-0.01835789913942305	-0.1801959525277215	0.1720355979106949	0.04948383145457486	0.2548136868772047	15.38733541803998	-26.25882584035879	6.152719557447239	-7.643359368832567	-623.116420308926	-62.00156977151882	-29.92375453162115	0.8678649372408596	0.8203648470098918	-0.07111959686627707	-2.228093744585739	0.4538056478895481	-0.3850536250731345	1.92350355318201	-1.336237631310253	-1.336237631308468	-0.003543684085308679	0.01558312085053948	0.06464079387757499	0.4606383718393224	-2.46371920134716e-08	-7.326761623564923e-07	2.333073207919323e-07	-1.193874904709183e-07	-1.595461848587797e-07	1.426221543503597e-07	-1.414717549637646e-07
0.54	-0.5324142388719451	-0.1100241295074821	0.7415499442803034	1.398672889125948	-0.3125413918433176	-0.05530848420583548	-0.3566509044014413	0.6758114255585913	0.6758114255585972	-0.1745243127534082	0.1745328899434781	-0.02998345501324807	-0.06496277012997258	-0.8593425291856616	-0.2939954157501617	-0.4977844360599121	2.387722219727609	-0.03883480941026971	0.5247840021963237	-0.5420547240587805	1.530620659898874	1.530620659898912	-0.000308371487988938	2.163549977097481e-05	0.07494636589398956	-0.04027686790480104	-0.3057273276762042	0.01434495172941438	-0.01843225234081689	-0.1808794753585384	0.1728982611132647	0.05016386813295962	0.2614052034983921	15.39333720869165	-26.44348572697834	6.054535760274693	-7.691256281090897	-627.9411784671554	-61.67657572108024	-29.05760072097902	0.9135899468770674	0.8294815903398578	-0.01130915857841861	-2.38529863350459	0.4735041321346012	-0.4025327776526489	1.972158375274362	-1.460906524402451	-1.460906524402469	0.03412020827597582	-0.02486339624338861	0.05375527089363474	0.4800561228726666	-6.428223456388104e-08	-6.234971280638246e-07	4.12925271092068e-07	-7.60750570284435e-08	-1.696788408468924e-07	1.736399606993648e-07	-1.560092235948622e-07
0.55	-0.540960356863502	-0.1129224215405834	0.7365725637038987	1.422427128032159	-0.3129071541452922	-0.05008175806606691	-0.3619731883729406	0.6910426005489262	0.691042600548928	-0.1745272836494901	0.1745328540552497	-0.02923182988885853	-0.0653426627523154	-0.8497772870383282	-0.2856513150309166	-0.4975904641124835	2.362835145824963	-0.03433144147391213	0.5204789198311488	-0.5223724579897591	1.515421319809179	1.515421319809206	-0.0002733535809393251	-1.46622160078174e-05	0.07535171039265759	-0.03571653545287706	-0.3143417695741333	0.01476819117033082	-0.01852493532306954	-0.1815340965576001	0.1737146861405977	0.05071109317831153	0.2677437281164066	15.39161398871893	-26.57277742360887	5.951710503270286	-7.696220679333424	-632.5779527115636	-61.26635402263095	-28.18270392246104	0.99353969241103	0.8386151985790289	0.04989759653953911	-2.58399651233715	0.4367030920355982	-0.4569982423469768	1.970702560414836	-1.578367717342195	-1.578367717343887	-0.01002236309570127	0.008969681706337773	0.02988206879724366	0.4418190433625329	-1.041190152665366e-07	-5.114325437480047e-07	5.961561456222999e-07	-2.870218113432642e-08	-1.810223625251084e-07	2.064970622474283e-07	-1.698604509779383e-07
0.5600000000000001	-0.549407712764836	-0.1157369243893198	0.7316001522919954	1.445923779250605	-0.3132282927743735	-0.04490058320522928	-0.3670977613162101	0.7061159981451464	0.706115998145144	-0.1745295473555048	0.1745328517180536	-0.02847695971359352	-0.06567739260273692	-0.8395901111410122	-0.2772375788771836	-0.4967906031596128	2.336204682174616	-0.02991007483158412	0.5156737464100919	-0.5025125184127855	1.499065181075916	1.499065181075931	-0.0001669334744958701	2.834570627190655e-05	0.07559537606907987	-0.03124431352054229	-0.3229562114720635	0.01519143061124762	-0.01861761830532419	-0.1821887177566613	0.174531111167931	0.05125831822366387	0.2740822527344196	15.38270582013896	-26.70363717684829	5.85236341058157	-7.69546505915329	-637.3320324819329	-60.90992151033867	-27.30330852186977	1.037976696873597	0.843408677237436	0.1098686425100183	-2.733976583044671	0.4571038733286888	-0.5025509888289983	2.007693076864784	-1.692266253116181	-1.692266253116186	0.04840064815474412	-0.009002268631684247	0.02141950644448432	0.4624340189548252	-1.441858817518877e-07	-3.959052994044024e-07	7.837225292286469e-07	2.354322570176121e-08	-1.938189230314482e-07	2.415613180343618e-07	-1.828881888633889e-07
0.5700000000000001	-0.5577502609302638	-0.1184670278191439	0.7266387589892468	1.469145630209557	-0.3135057444399506	-0.03976900316878495	-0.3720229031986221	0.7210199296225586	0.7210199296225579	-0.1745310434084313	0.1745329251994329	-0.02772054305207222	-0.0659679733384901	-0.8288216799440129	-0.2687785452766293	-0.4953874204491842	2.307888083914875	-0.02560024797799989	0.51057176242066	-0.4825016309634492	1.481534115329341	1.481534115329326	-0.0001312864114094686	-5.174144150405061e-06	0.07566027302576113	-0.02689301706694179	-0.3312906895000184	0.01544733080213473	-0.01869403066944393	-0.1828614311522692	0.1752947851332802	0.05164471242574475	0.2801375352865697	15.36409462913477	-26.7677855583077	5.747904796000774	-7.636365290683623	-641.8743339299779	-60.46073551255434	-26.42740544623468	1.110928102778274	0.8478455923552407	0.1705984149734974	-2.922144384867326	0.4148600015031149	-0.5247663081945918	1.99992064489367	-1.811538545525897	-1.81153854553042	-0.01872497170498247	0.0004223079044388526	-0.005121568453642265	0.4182483972657436	-1.606720832987626e-07	-3.135031733163281e-07	8.643932106486026e-07	5.045856614208562e-08	-1.907619555408805e-07	2.586470868978454e-07	-1.840150872856493e-07
0.58	-0.5659821944293887	-0.1211124019347842	0.7216944085795353	1.492075986598427	-0.3137407102549659	-0.03469059181307424	-0.3767475093933557	0.7357429480804855	0.7357429480804867	-0.1745321573321448	0.1745328615175301	-0.02696430669273088	-0.06621568692196665	-0.8174671778804068	-0.2602917160404428	-0.4933820245521872	2.277905768157993	-0.02141290471922248	0.5050400102634556	-0.462405380877089	1.462882577178857	1.462882577178812	-9.050763194605154e-05	-7.27948494973405e-07	0.07555931563309888	-0.02267088306521818	-0.3396251675279761	0.01570323099302047	-0.01877044303356077	-0.1835341445478776	0.1760584590986292	0.05203110662782428	0.2861928178387171	15.34032003153786	-26.83435329230429	5.647628401873048	-7.590345059553065	-646.5129996510404	-60.07021579210414	-25.55642798270711	1.155190870194959	0.84896780436386	0.2303112798236713	-3.067120082473023	0.4326071543673257	-0.588504622383527	2.024765604269562	-1.91636073389798	-1.91636073389798	0.04942699143014718	-0.00140905941613386	-0.01175136342421387	0.4366015285794474	-1.464485816699487e-07	-2.742407361191731e-07	8.058508845700073e-07	4.438591313676604e-08	-1.670585329845739e-07	2.523190123261393e-07	-1.696432180349184e-07
0.59	-0.5740977908084934	-0.1236728376160739	0.7167730976356429	1.514698487315497	-0.3139343267652079	-0.02966951107846659	-0.3812707906849824	0.7502740051464657	0.750274005146465	-0.1745326630694647	0.1745328884287956	-0.02620983644252339	-0.06642172775629672	-0.8055605885846184	-0.2517967812889195	-0.4907806630988336	2.246328976904386	-0.01733675528753108	0.4991198219424248	-0.4422515995838462	1.443147021753389	1.443147021753362	-2.290253236714901e-05	5.035116528949518e-06	0.07530718331413484	-0.01856483835110781	-0.3476269002195721	0.01579859687028416	-0.0188250735308325	-0.1842410456171301	0.1767999327849636	0.05225419716096368	0.2919293760574172	15.31846382226917	-26.83525059324104	5.542497784348755	-7.494311405183242	-650.9101613582544	-59.58966967136853	-24.69090046352068	1.222098288294331	0.8495603154739069	0.289943112873744	-3.242792943472977	0.3911032988425749	-0.6023642214230779	2.010576071513374	-2.029392841773458	-2.029392841770674	-0.01642541541023548	0.001236517132859611	-0.036069961968253	0.3934223362885943	-1.279753337476654e-07	-2.429184664273359e-07	7.217946714028645e-07	3.411451562082489e-08	-1.419241541795844e-07	2.38882141531233e-07	-1.524375699778055e-07
